<?xml version="1.0" encoding="UTF-8" standalone="no"?>
<svg
   width="600"
   height="800"
   version="1.1"
   viewBox="0 0 159 212"
   id="svg2818"
   sodipodi:docname="peace.svg"
   inkscape:version="1.4 (1:1.4+202410161351+e7c3feb100)"
   xml:space="preserve"
   xmlns:inkscape="http://www.inkscape.org/namespaces/inkscape"
   xmlns:sodipodi="http://sodipodi.sourceforge.net/DTD/sodipodi-0.dtd"
   xmlns:xlink="http://www.w3.org/1999/xlink"
   xmlns="http://www.w3.org/2000/svg"
   xmlns:svg="http://www.w3.org/2000/svg"
   xmlns:rdf="http://www.w3.org/1999/02/22-rdf-syntax-ns#"
   xmlns:cc="http://creativecommons.org/ns#"
   xmlns:dc="http://purl.org/dc/elements/1.1/"><defs
     id="defs2822"><linearGradient
       id="linearGradient24"
       inkscape:collect="always"><stop
         style="stop-color:#e0a4a4;stop-opacity:1;"
         offset="0"
         id="stop24" /><stop
         style="stop-color:#f5d4d4;stop-opacity:1;"
         offset="1"
         id="stop25" /></linearGradient><linearGradient
       id="linearGradient1"
       inkscape:collect="always"><stop
         style="stop-color:#f3b4b4;stop-opacity:1;"
         offset="0"
         id="stop1" /><stop
         style="stop-color:#f5d4d4;stop-opacity:1;"
         offset="1"
         id="stop2" /></linearGradient><linearGradient
       inkscape:collect="always"
       xlink:href="#linearGradient1"
       id="linearGradient2"
       x1="47.552849"
       y1="71.291557"
       x2="59.539814"
       y2="74.910042"
       gradientUnits="userSpaceOnUse" /><linearGradient
       inkscape:collect="always"
       xlink:href="#linearGradient24"
       id="linearGradient25"
       x1="117.18289"
       y1="70.167412"
       x2="143.27735"
       y2="70.167412"
       gradientUnits="userSpaceOnUse" /></defs><sodipodi:namedview
     id="namedview2820"
     pagecolor="#ffffff"
     bordercolor="#999999"
     borderopacity="1"
     inkscape:pageshadow="0"
     inkscape:pageopacity="0"
     inkscape:pagecheckerboard="0"
     showgrid="false"
     inkscape:snap-global="false"
     inkscape:zoom="0.63551222"
     inkscape:cx="352.47159"
     inkscape:cy="416.98647"
     inkscape:window-width="1920"
     inkscape:window-height="1011"
     inkscape:window-x="0"
     inkscape:window-y="0"
     inkscape:window-maximized="1"
     inkscape:current-layer="svg2818"
     inkscape:showpageshadow="2"
     inkscape:deskcolor="#d1d1d1" /><metadata
     id="metadata2728"><rdf:RDF><cc:Work
         rdf:about=""><dc:format>image/svg+xml</dc:format><dc:type
           rdf:resource="http://purl.org/dc/dcmitype/StillImage" /></cc:Work></rdf:RDF></metadata><g
     fill="none"
     stroke-linecap="round"
     stroke-linejoin="round"
     id="g2806"><circle
       r="0"
       stroke="#c53822"
       stroke-width="2.26"
       style="paint-order:stroke markers fill"
       id="circle2792" /><g
       stroke="#924019"
       id="g2800"><circle
         r="0"
         stroke-width="1.29"
         style="paint-order:stroke markers fill"
         id="circle2794" /><circle
         transform="scale(1,-1)"
         r="0"
         stroke-width="3.6"
         style="paint-order:stroke markers fill"
         id="circle2796" /><circle
         transform="scale(1,-1)"
         r="0"
         stroke-width="3.6"
         style="paint-order:stroke markers fill"
         id="circle2798" /></g><circle
       transform="scale(1,-1)"
       r="0"
       stroke="#4d4320"
       stroke-width="4.38"
       style="paint-order:stroke markers fill"
       id="circle2802" /><circle
       transform="scale(1,-1)"
       r="0"
       stroke="#4d4320"
       stroke-width="3.52"
       style="paint-order:stroke markers fill"
       id="circle2804" /></g><g
     inkscape:groupmode="layer"
     id="layer1"
     inkscape:label="Layer 1" /><path
     style="fill:#f2d2d2;fill-opacity:1;stroke-width:0.238624"
     d="m 126.45819,204.89303 2.87666,10.50606 24.58704,-0.58648 -8.84348,-19.11039 z"
     id="path21-3"
     sodipodi:nodetypes="ccccc" /><path
     style="fill:#f3ebd0;fill-opacity:0.929852;stroke-width:0.238624"
     d="m 116.8567,101.17063 -30.728044,-3.066737 -23.569205,-0.139009 2.712887,19.617766 -19.01062,6.11098 13.473542,18.14198 c 0,0 -7.113896,45.85338 -3.925048,66.03269 36.042151,14.8322 61.469708,7.15823 72.965638,-2.54797 0.0527,-12.76169 -6.72859,-13.90505 -6.72859,-13.90505 0,0 3.5658,15.99547 4.65042,20.27866 5.51428,3.04189 27.17933,-13.93317 26.61912,-22.31239 -2.77505,3.26984 -7.80844,0.10202 -7.80844,0.10202 l 5.74653,-9.12386 c -3.47606,-30.52514 -12.66063,-34.63033 -16.13668,-47.77531 l -21.30416,-12.32821 13.46812,-12.04456 z"
     id="path13-6"
     sodipodi:nodetypes="ccccccccccccccccc" /><path
     style="fill:#ecc7c7;fill-opacity:1;stroke-width:0.238624"
     d="m 103.69186,98.311662 0.005,14.687738 4.58052,3.05549 -12.181576,12.98584 -8.49018,-15.65939 -10.335863,-6.49291 -2.724555,-16.845674 -3.181663,-11.799558 z"
     id="path12-7"
     sodipodi:nodetypes="ccccccccc" /><path
     style="fill:#b77834;fill-opacity:1;stroke-width:0.238624"
     d="m 113.07575,118.34651 25.76549,10.02303 -8.42685,19.59062 1.08886,50.48113 c 0,0 -14.12421,-4.51337 -11.27184,-13.97344 2.85238,-9.46007 -0.0896,-43.27068 -0.0896,-43.27068 z"
     id="path14-5"
     sodipodi:nodetypes="cccczcc" /><path
     style="fill:#b77834;fill-opacity:1;stroke-width:0.238624"
     d="m 62.369448,107.46695 -2.934556,8.74615 -27.368696,7.12855 c 0,0 2.504262,2.0297 2.177726,6.22004 6.095628,14.10894 6.752117,26.21335 10.089563,22.99644 4.035237,7.39375 1.528355,26.86778 1.528355,26.86778 l 8.170055,28.84371 c 0,0 25.904889,-10.97172 31.727628,-20.79261 5.822726,-9.8209 1.107407,-50.03367 1.107407,-50.03367 l -7.751908,-21.77038 z"
     id="path15-2"
     sodipodi:nodetypes="ccccccczccc" /><path
     style="fill:#f2d2d2;fill-opacity:1;stroke-width:0.326136"
     d="m 29.887782,196.41305 c 4.517633,6.31025 19.876703,20.14033 19.876703,20.14033 l 5.749381,3.25163 8.059624,6.21801 c 0,0 2.615356,2.34718 4.974409,3.16798 2.620402,0.92709 10.865821,-1.49564 7.944428,-3.30227 -1.672698,-0.14159 -8.348522,-4.07137 -8.348522,-4.07137 l -7.691448,-4.79224 12.382584,5.78035 c 0,0 3.478863,-0.0417 7.053241,0.9331 0.866995,-4.29282 0.81009,-4.52018 -1.630415,-5.2747 -3.340719,-0.75454 -14.069685,-6.72082 -14.069685,-6.72082 0,0 12.679055,4.65259 14.898883,4.06009 2.219817,-0.59247 8.322524,-0.0191 5.376517,-1.28169 -2.946005,-1.26263 -5.262591,-3.71431 -5.262591,-3.71431 l -12.692258,-4.33439 16.021119,3.35257 c 0,0 -0.416899,0.51877 4.064464,-1.37251 4.481364,-1.89129 2.154311,-6.15694 -1.056418,-5.24987 -4.846753,1.162 -2.853834,0.62684 -6.741869,-1.71725 0,0 -7.835145,0.89358 -9.62211,-2.46742 -1.786966,-3.361 3.453483,-11.65735 3.453483,-11.65735 l -5.493609,-1.60601 c 0,0 -2.031722,3.73133 -3.162684,5.20416 -1.130964,1.47283 -2.359825,-1.15755 -5.470942,0.62974 -3.111116,1.78728 -2.903985,2.51962 -2.903985,2.51962 l -6.652955,-10.8217 c 0,0 -1.431253,-4.77737 -5.420909,-4.70942 -3.989656,0.0679 -13.881052,8.92025 -13.634436,17.83572 z"
     id="path16-6"
     sodipodi:nodetypes="cccccccccccczzccczzczcczzccccc" /><path
     style="fill:#f3ebd0;fill-opacity:1;stroke-width:0.238624"
     d="m 38.047452,125.20204 c 0,0 -32.8847035,28.6993 -35.4372759,42.013 -2.55257238,13.3137 6.2753511,17.95102 6.2753511,17.95102 l 4.6289228,3.67755 4.284117,5.22646 c 0,0 -0.5226,4.96219 4.337383,10.30396 3.163317,-4.11068 3.899113,-2.25717 6.882316,-2.25431 2.330658,1.48827 27.114527,-20.94445 27.114527,-20.94445 l -9.036743,-6.61791 -6.194111,-7.26817 13.069739,-10.31521 c 0,0 0.67895,-37.10904 -15.924226,-31.77194 z"
     id="path13-3-1"
     sodipodi:nodetypes="czcccccccccc" /><path
     style="fill:#7b1f1f;fill-opacity:1;stroke-width:0.314677"
     d="m 129.00595,20.335952 c 4.18982,0.827164 7.40258,1.48736 10.94108,-3.111979 0.70715,15.309452 -6.46955,15.638879 -7.67302,21.085378 3.53681,7.166261 0.0783,15.61033 0.0783,15.61033 0,0 3.56525,-2.81337 9.07023,-5.35559 -0.85871,13.427027 -13.94931,18.541044 -13.94931,18.541044 L 107.9037,70.800573 73.326385,102.76551 H 60.97734 l 3.46042,-11.651746 c 0,0 -14.342037,-3.567248 -17.306392,-16.151084 10.258533,4.122447 4.529293,-3.983273 4.529293,-3.983273 L 43.445268,35.038426 c 0,0 13.510435,-23.190407 22.975156,-27.3536251 9.464711,-4.1632158 37.614496,-5.2436004 37.614496,-5.2436004 12.91849,4.2739732 23.05475,5.1838542 24.97103,17.8947515 z"
     id="path19-3"
     sodipodi:nodetypes="ccccccccccccczcc" /><path
     style="fill:url(#linearGradient25);fill-opacity:1;stroke-width:0.314677"
     d="m 120.42625,65.59262 c 0,0 20.28617,-9.952493 22.45396,-6.633381 2.16779,3.319112 -5.04883,9.742692 -9.31658,13.817864 -4.26775,4.075172 -16.38074,9.276121 -16.38074,9.276121 z"
     id="path20-5"
     sodipodi:nodetypes="czzcc" /><path
     style="fill:#f5d4d4;fill-opacity:1;stroke-width:0.325686"
     d="m 122.07323,28.064834 4.53539,28.143045 -6.42513,18.762032 c 0,0 2.18713,3.887936 0.28345,12.508025 -1.90368,8.620089 -11.06898,15.710634 -15.53808,16.156194 -4.4691,0.44556 -28.575076,-7.945219 -38.792253,-18.327728 C 45.286297,75.340881 43.331719,57.24752 55.571985,57.13592 58.430043,42.012807 75.517289,33.54153 91.283741,32.091498 107.0502,30.641467 122.07323,28.064834 122.07323,28.064834 Z"
     id="path1-6"
     sodipodi:nodetypes="ccczzcczc" /><path
     style="fill:#9e8080;fill-opacity:0.493422;stroke-width:0.326542"
     d="m 110.97225,81.572275 2.551,-0.13583 0.72888,1.630027 -3.27988,2.037543 -6.1953,-1.630036 z"
     id="path9-2" /><path
     style="fill:#5d1c1c;fill-opacity:0.473258;stroke-width:0.314677"
     d="m 99.435756,87.825376 6.527364,1.650368 c 0,0 3.51112,-0.08354 4.6652,0.04831 1.15409,0.131859 1.77394,-0.135193 1.77394,-0.135193 l 1.2326,-0.44303 0.0264,0.602309 -1.05131,0.36144 c 0,0 -0.99158,0.466536 -1.88704,0.963005 -0.89547,0.496456 -5.81818,-0.528248 -5.81818,-0.528248 z"
     id="path10-9"
     sodipodi:nodetypes="cczcccczcc" /><path
     style="fill:url(#linearGradient2);stroke-width:0.314677"
     d="m 60.193006,60.43686 c 0,0 -28.160761,-6.751646 -30.571714,-4.16681 -2.410953,2.584836 1.841866,12.478452 8.733799,16.598385 6.891933,4.119934 21.757863,19.573872 29.626682,12.509374 0.05519,-6.990784 -7.788767,-24.940949 -7.788767,-24.940949 z"
     id="path11-1"
     sodipodi:nodetypes="czzcc" /><ellipse
     style="fill:#9fc532;fill-opacity:1;stroke-width:0.277725"
     id="path4-2"
     cx="94.954559"
     cy="65.306587"
     rx="3.6385581"
     ry="4.4950695" /><path
     style="fill:#7b1f1f;fill-opacity:1;stroke-width:0.314677"
     d="m 103.1358,58.987442 c 0.66628,-1.767936 -8.039015,-5.699989 -11.775701,-6.601459 -3.736679,-0.90147 -7.429824,-1.520985 -10.055638,-1.52007 1.167107,2.259306 5.977773,3.598102 9.526392,4.647077 3.548626,1.048975 11.638667,5.242387 12.304947,3.474452 z"
     id="path5-7"
     sodipodi:nodetypes="zzczz" /><path
     style="fill:#7b1f1f;fill-opacity:1;stroke-width:0.314677"
     d="m 113.17407,59.6389 c -0.53542,-0.860198 2.23414,-3.369694 4.79596,-4.633985 2.56182,-1.264291 4.29805,-0.116033 5.07818,0.3896 -0.41065,1.309102 -1.97652,0.669793 -3.36883,1.464824 -1.39233,0.79503 -6.16836,3.422605 -6.50531,2.779561 z"
     id="path7-9"
     sodipodi:nodetypes="czczc" /><path
     style="fill:#7b1f1f;fill-opacity:1;stroke-width:0.314677"
     d="m 105.20746,38.322057 c 5.40621,-13.432621 18.14692,0.508003 9.27386,6.684884 9.47412,1.138928 16.69975,-15.278941 5.4334,-23.4559 -11.26633,-8.176958 -21.229426,2.303541 -21.229426,2.303541 0,0 4.291416,7.574564 6.522166,14.467475 z"
     id="path17-3"
     sodipodi:nodetypes="cczcc" /><path
     style="fill:#7b1f1f;fill-opacity:1;stroke-width:0.314677"
     d="m 104.42553,34.251998 c -6.519824,19.100999 -29.96861,4.661494 -32.510493,10.837641 -2.541882,6.176147 -1.028314,9.29236 7.762248,11.813132 -4.969807,6.690112 -10.93772,3.127004 -10.93772,3.127004 0,0 2.690107,6.166594 -2.469815,14.940136 C 66.049447,63.244199 34.237916,63.366446 36.632039,48.911536 44.671438,54.955884 56.468778,35.066115 56.468778,35.066115 L 87.321502,22.021583 c 0,0 18.088988,4.346426 17.104028,12.230415 z"
     id="path18-6"
     sodipodi:nodetypes="ccccccccc" /><path
     style="fill:#3d1113;fill-opacity:0.903458;stroke-width:0.314677"
     d="m 100.97471,68.498749 c 0.86665,-3.233063 -0.61745,-5.645983 -0.61745,-5.645983 0,0 0.83798,-0.564595 1.76416,-0.651458 -1.92007,-1.34303 -4.91283,-2.103443 -8.953064,-2.1281 -4.040237,-0.02466 -7.853058,1.076433 -10.76131,2.041239 0,0 1.210591,1.417662 2.910851,4.299632 -0.06395,-2.981165 1.367215,-3.952188 1.367215,-3.952188 0,0 4.498451,-1.26901 7.541733,-0.998902 3.043282,0.270106 6.851505,2.36445 6.747865,7.03576 z"
     id="path3-0"
     sodipodi:nodetypes="ccczccczc" /><ellipse
     style="fill:#9fc532;fill-opacity:1;stroke-width:0.356301"
     id="path8-6"
     cx="118.13574"
     cy="66.023201"
     rx="2.2051868"
     ry="4.082479" /><path
     style="fill:#5c5a53;fill-opacity:0.299647;stroke-width:0.263139"
     d="m 83.49509,96.503423 18.99714,7.126847 -3.117012,6.26894 -7.399602,-3.93677 z"
     id="path22-8"
     sodipodi:nodetypes="ccccc" /><path
     style="fill:#130606;fill-opacity:0.903458;stroke-width:0.314677"
     d="m 113.44057,68.049426 c -1.43654,-0.582782 0.72196,-4.134252 1.19956,-4.978762 -0.77937,0.501841 -0.12747,0.342787 -1.72372,1.0566 1.0184,-2.369652 4.62156,-3.216965 6.476,-3.375661 1.85442,-0.158695 2.59638,1.136472 3.40397,1.278645 -0.84629,0.619911 -1.57378,2.17323 -1.57378,2.17323 0,0 0.151,-2.492709 -1.85667,-1.927548 -2.00769,0.565162 -4.47617,1.68251 -5.92536,5.773496 z"
     id="path6-0"
     sodipodi:nodetypes="ccczcczc" /><ellipse
     style="fill:#5f953d;fill-opacity:1;stroke-width:0.195715"
     id="path2"
     cx="96.601532"
     cy="64.720444"
     rx="0.99513215"
     ry="1.3268428" /><ellipse
     style="fill:#5f953d;fill-opacity:1;stroke-width:0.195715"
     id="path2-7"
     cx="118.71631"
     cy="65.339272"
     rx="0.99513215"
     ry="1.3268428" /><ellipse
     style="fill:#ffffff;fill-opacity:1;stroke-width:0.114038"
     id="path2-7-9"
     cx="119.11141"
     cy="64.351151"
     rx="0.5528512"
     ry="0.81084836" /><ellipse
     style="fill:#ffffff;fill-opacity:1;stroke-width:0.114038"
     id="path2-7-9-2"
     cx="97.158806"
     cy="63.733421"
     rx="0.5528512"
     ry="0.81084836" /><path
     style="fill:#ffffff;fill-opacity:0.76145208;stroke:none;stroke-width:0.692064"
     d="m 111.58334,72.221621 c 0.57455,-0.235373 2.38535,4.656862 1.79574,4.785502 -0.58961,0.12864 -2.14199,-0.975647 -2.33959,-1.891256 -0.1976,-0.915609 -0.0307,-2.658873 0.54385,-2.894246 z"
     id="path24-3"
     sodipodi:nodetypes="zzzz" /></svg>
