<?xml version="1.0" encoding="UTF-8"?>
<svg width="600" height="800" version="1.1" viewBox="0 0 159 212" xmlns="http://www.w3.org/2000/svg" xmlns:cc="http://creativecommons.org/ns#" xmlns:dc="http://purl.org/dc/elements/1.1/" xmlns:rdf="http://www.w3.org/1999/02/22-rdf-syntax-ns#">
 <metadata>
  <rdf:RDF>
   <cc:Work rdf:about="">
    <dc:format>image/svg+xml</dc:format>
    <dc:type rdf:resource="http://purl.org/dc/dcmitype/StillImage"/>
   </cc:Work>
  </rdf:RDF>
 </metadata>
 <g fill="none" stroke-linecap="round" stroke-linejoin="round">
  <circle r="0" stroke="#c53822" stroke-width="2.26" style="paint-order:stroke markers fill"/>
  <g stroke="#924019">
   <circle r="0" stroke-width="1.29" style="paint-order:stroke markers fill"/>
   <circle transform="scale(1,-1)" r="0" stroke-width="3.6" style="paint-order:stroke markers fill"/>
   <circle transform="scale(1,-1)" r="0" stroke-width="3.6" style="paint-order:stroke markers fill"/>
  </g>
  <circle transform="scale(1,-1)" r="0" stroke="#4d4320" stroke-width="4.38" style="paint-order:stroke markers fill"/>
  <circle transform="scale(1,-1)" r="0" stroke="#4d4320" stroke-width="3.52" style="paint-order:stroke markers fill"/>
 </g>
 <path d="m79.4 109-2.67 2.33a2.79 2.79 0 0 0-1.82-0.681 2.79 2.79 0 0 0-1.71 0.589l-2.57-2.23 2.23 2.55a2.79 2.79 0 0 0-0.73 1.88 2.79 2.79 0 0 0 0.692 1.84l-2.18 2.51 2.51-2.2a2.79 2.79 0 0 0 1.77 0.635 2.79 2.79 0 0 0 1.87-0.727l2.63 2.28-2.3-2.63a2.79 2.79 0 0 0 0.585-1.71 2.79 2.79 0 0 0-0.62-1.76z" fill="#ffe300" fill-opacity=".436" stroke-width=".382" style="paint-order:stroke markers fill"/>
</svg>
