<?xml version="1.0" encoding="UTF-8" standalone="no"?>
<svg
   width="600"
   height="800"
   version="1.1"
   viewBox="0 0 159 212"
   id="svg13"
   sodipodi:docname="peace.svg"
   inkscape:version="1.3.2 (1:1.3.2+202311252150+091e20ef0f)"
   xml:space="preserve"
   xmlns:inkscape="http://www.inkscape.org/namespaces/inkscape"
   xmlns:sodipodi="http://sodipodi.sourceforge.net/DTD/sodipodi-0.dtd"
   xmlns="http://www.w3.org/2000/svg"
   xmlns:svg="http://www.w3.org/2000/svg"
   xmlns:rdf="http://www.w3.org/1999/02/22-rdf-syntax-ns#"
   xmlns:cc="http://creativecommons.org/ns#"
   xmlns:dc="http://purl.org/dc/elements/1.1/"><defs
     id="defs13" /><sodipodi:namedview
     id="namedview13"
     pagecolor="#ffffff"
     bordercolor="#000000"
     borderopacity="0.25"
     inkscape:showpageshadow="2"
     inkscape:pageopacity="0.0"
     inkscape:pagecheckerboard="0"
     inkscape:deskcolor="#d1d1d1"
     showgrid="false"
     inkscape:zoom="0.45124999"
     inkscape:cx="274.79225"
     inkscape:cy="531.85597"
     inkscape:window-width="1920"
     inkscape:window-height="941"
     inkscape:window-x="0"
     inkscape:window-y="0"
     inkscape:window-maximized="1"
     inkscape:current-layer="svg13" /><metadata
     id="metadata1"><rdf:RDF><cc:Work
         rdf:about=""><dc:format>image/svg+xml</dc:format><dc:type
           rdf:resource="http://purl.org/dc/dcmitype/StillImage" /></cc:Work></rdf:RDF></metadata><g
     fill="none"
     stroke-linecap="round"
     stroke-linejoin="round"
     id="g6"><circle
       r="0"
       stroke="#c53822"
       stroke-width="2.26"
       style="paint-order:stroke markers fill"
       id="circle1"
       cx="0"
       cy="0" /><g
       stroke="#924019"
       id="g4"><circle
         r="0"
         stroke-width="1.29"
         style="paint-order:stroke markers fill"
         id="circle2"
         cx="0"
         cy="0" /><circle
         transform="scale(1,-1)"
         r="0"
         stroke-width="3.6"
         style="paint-order:stroke markers fill"
         id="circle3"
         cx="0"
         cy="0" /><circle
         transform="scale(1,-1)"
         r="0"
         stroke-width="3.6"
         style="paint-order:stroke markers fill"
         id="circle4"
         cx="0"
         cy="0" /></g><circle
       transform="scale(1,-1)"
       r="0"
       stroke="#4d4320"
       stroke-width="4.38"
       style="paint-order:stroke markers fill"
       id="circle5"
       cx="0"
       cy="0" /><circle
       transform="scale(1,-1)"
       r="0"
       stroke="#4d4320"
       stroke-width="3.52"
       style="paint-order:stroke markers fill"
       id="circle6"
       cx="0"
       cy="0" /></g><path
     style="fill:#443c04;fill-opacity:1;stroke-width:2.83061;paint-order:stroke markers fill"
     d="m 101.96723,23.74817 c 0,0 2.47821,-11.649331 15.05927,-8.781914 12.58106,2.867418 31.20196,29.858433 33.60852,49.690843 2.40657,19.832411 -20.18463,40.601031 -20.71023,56.182461 -0.52559,15.58142 9.48842,32.29881 9.48842,32.29881 0,0 -32.77789,-13.56221 -39.40717,-29.12925 C 93.376756,108.44207 106.765,71.93145 106.765,71.93145 L 119.35541,44.288533 104.50365,32.69706 Z"
     id="path18"
     sodipodi:nodetypes="czzzczcccc" /><path
     style="fill:#f0ebc7;fill-opacity:1;stroke-width:2.83061;paint-order:stroke markers fill"
     d="m 86.737134,130.51038 25.400566,11.31794 3.68977,10.6615 -26.191987,5.6104 3.841312,-15.34882 H 55.123582 l -4.500501,14.88651 -14.765856,-8.90931 1.72955,-6.83714 23.191632,-12.0866 z"
     id="path11"
     sodipodi:nodetypes="ccccccccccc" /><path
     style="fill:#ecb98a;fill-opacity:1;stroke-width:2.83061;paint-order:stroke markers fill"
     d="m 57.530682,126.58897 c 1.131554,9.5479 0.637125,17.83714 -14.234067,21.3868 1.227549,8.88695 9.442957,16.6462 21.355922,18.32052 11.912947,1.67431 34.568093,-4.05474 40.037383,-18.3514 -20.075385,-3.02658 -20.727859,-21.67278 -14.804455,-43.11334 -13.609344,7.0401 -25.411875,14.17843 -32.354783,21.75742 z"
     id="path6"
     sodipodi:nodetypes="cccccc" /><path
     style="fill:#9a9d95;fill-opacity:0.446842;stroke-width:2.83061;paint-order:stroke markers fill"
     d="m 58.302882,128.90713 -1.12054,9.86771 25.5495,-15.70109 -0.494156,-9.51543 z"
     id="path22" /><path
     id="path10"
     style="fill:#6f6f6f;fill-opacity:1;stroke-width:2.83061;paint-order:stroke markers fill"
     d="M 12.132031 187.80063 L 5.4097266 212 L 35.26415 212 L 37.900693 195.49133 L 12.132031 187.80063 z " /><path
     id="path9"
     style="fill:#6f6f6f;fill-opacity:1;stroke-width:2.83061;paint-order:stroke markers fill"
     d="M 140.86406 185.5559 L 111.21356 192.68657 L 116.58396 212 L 153.6058 212 L 140.86406 185.5559 z " /><path
     id="path7"
     style="fill:#f0ebc7;fill-opacity:1;stroke-width:2.83061;paint-order:stroke markers fill"
     d="M 54.374688 142.48512 C 54.374687 142.48512 19.069682 156.4712 15.401572 162.32492 C 11.733462 168.17865 11.969512 192.52819 11.969512 192.52819 C 11.969512 192.52819 19.625018 199.17096 26.553311 197.75729 C 25.868192 200.60898 25.042705 205.81468 24.189531 212 L 115.60884 212 L 114.88268 195.13265 L 121.3229 194.0742 L 140.61977 185.90164 C 140.61977 185.90164 132.59486 159.58364 127.64201 153.85941 C 122.68915 148.13519 93.34625 143.56323 93.34625 143.56323 L 64.323574 159.30744 L 54.374688 142.48512 z " /><path
     id="path8"
     style="fill:#b1a381;fill-opacity:0.709139;stroke-width:2.83061;paint-order:stroke markers fill"
     d="M 105.51296 169.96489 L 109.49935 193.64564 L 106.37576 212 L 113.63583 212 L 115.11093 205.41278 L 111.74408 187.1195 L 108.29856 170.9369 L 105.51296 169.96489 z " /><path
     style="fill:#443c04;fill-opacity:1;stroke-width:2.83061;paint-order:stroke markers fill"
     d="m 69.592182,18.014204 c 16.206414,-0.401991 30.720508,1.707783 41.483188,16.071708 10.76269,14.363925 9.34666,48.430234 2.58371,63.690375 C 106.89614,113.03643 87.0595,119.46711 87.0595,119.46711 l -32.879825,1.60794 c 0,0 -20.361307,-13.51728 -26.854385,-28.068544 C 20.832196,78.455247 11.981313,54.211123 21.381876,39.498486 30.782457,24.785848 53.385751,18.416194 69.592182,18.014204 Z"
     id="path17"
     sodipodi:nodetypes="zzzcczzz" /><path
     style="fill:#ecb98a;fill-opacity:1;stroke-width:2.83061;paint-order:stroke markers fill"
     d="m 28.700516,93.4114 c -0.90599,4.671372 -0.163412,18.98126 2.285054,22.86752 2.448483,3.88625 12.044789,17.81781 18.877936,18.52847 6.833164,0.71066 29.359162,-9.3983 33.326257,-13.37545 3.967095,-3.97715 23.081777,-26.880336 23.081777,-26.880336 0,0 2.72337,-8.920867 5.77585,-23.12525 3.05247,-14.204381 -13.243622,-49.93606 -46.776712,-50.85812 -33.533089,-0.922059 -40.58108,24.740083 -40.845536,38.520927 -0.26444,13.780844 1.444125,18.143657 4.275374,34.322239 z"
     id="path13"
     sodipodi:nodetypes="czzzczzzc" /><path
     id="path2"
     style="fill:#433106;fill-opacity:1;stroke-width:2.97223;paint-order:stroke markers fill"
     d="m 71.825115,91.030359 c 0,4.623987 -3.032522,8.372471 -6.773326,8.372471 -3.740804,0 -6.773326,-3.748484 -6.773326,-8.372471 0,-4.623988 3.032522,-7.327212 6.773326,-7.327212 3.740804,0 6.773326,2.703224 6.773326,7.327212 z"
     sodipodi:nodetypes="sssss" /><ellipse
     style="fill:#433106;fill-opacity:1;stroke-width:2.93881;paint-order:stroke markers fill"
     id="path4"
     cx="20.226826"
     cy="94.851105"
     rx="4.1576004"
     ry="7.1654463"
     transform="matrix(0.98373682,-0.17961591,0.15533254,0.98786224,0,0)" /><path
     style="fill:#ecc58a;fill-opacity:1;stroke-width:2.83061;paint-order:stroke markers fill"
     d="m 107.81509,84.29215 c -3.75061,6.651563 -11.873588,14.548107 -14.713741,23.96279 5.364603,5.64094 13.701481,-3.94084 16.308171,-8.91897 2.60669,-4.978127 10.50764,-15.109186 -1.59443,-15.04382 z"
     id="path5"
     sodipodi:nodetypes="cccc" /><path
     style="fill:#443c04;fill-opacity:1;stroke-width:2.83061;paint-order:stroke markers fill"
     d="M 65.211355,17.704392 C 47.258864,15.194369 30.205311,28.203259 22.272703,40.663426 14.340112,53.123591 20.114627,80.53964 20.114627,80.53964 l 12.180215,-24.725264 6.207853,24.008154 1.572247,-17.566728 13.388578,23.867242 0.433355,-29.080027 14.02269,18.838798 -0.227768,-12.586542 12.667608,18.823354 5.176115,-6.919174 3.42726,23.117321 3.543063,-3.838411 0.247089,5.473378 13.745688,-11.099246 c 0,0 11.87089,-9.406269 10.97829,-30.34541 -0.8926,-20.939141 -34.313064,-38.29267 -52.265555,-40.802693 z"
     id="path14"
     sodipodi:nodetypes="zzcccccccccccccczz" /><path
     style="fill:#443c04;fill-opacity:0.709139;stroke-width:2.83061;paint-order:stroke markers fill"
     d="m 55.41892,79.671004 c 4.140733,-1.880827 5.782767,-4.425553 12.553725,-5.607532 4.522109,0.06713 8.759717,2.552543 13.137652,3.845164 L 67.469801,77.462734 Z"
     id="path15"
     sodipodi:nodetypes="ccccc" /><path
     style="fill:#443c04;fill-opacity:0.709139;stroke-width:2.83061;paint-order:stroke markers fill"
     d="m 26.21739,78.871861 3.83295,-1.758339 10.708992,2.9574 C 36.86784,76.898791 33.744411,74.943455 29.78063,73.961054 c -2.371777,1.242781 -2.418899,3.259422 -3.56324,4.910807 z"
     id="path16"
     sodipodi:nodetypes="ccccc" /><path
     style="fill:#f1400f;fill-opacity:0.50734001;stroke-width:2.83061;paint-order:stroke markers fill"
     d="m 42.27367,116.79072 c 0,0 2.565479,2.09407 4.961769,2.29315 2.396292,0.19907 8.643348,-2.36563 8.643348,-2.36563 l 1.927519,0.2929 -3.739175,1.51531 c 0,0 -4.612522,2.12659 -6.532532,2.01953 -1.92001,-0.10705 -4.308498,-1.87893 -4.308498,-1.87893 z"
     id="path19"
     sodipodi:nodetypes="czccczcc" /><path
     style="fill:#f8eb90;fill-opacity:0.447957;stroke-width:2.83061;paint-order:stroke markers fill"
     d="m 45.64969,122.42989 c 0,0 1.706843,1.27718 2.524092,0.62838 -0.220951,1.01198 1.279765,2.48085 0.147072,2.82763 -1.173465,-1.45425 -2.671169,-3.45601 -2.671169,-3.45601 z"
     id="path20"
     sodipodi:nodetypes="cccc" /><path
     style="fill:#443c04;fill-opacity:0.709139;stroke-width:2.83061;paint-order:stroke markers fill"
     d="m 45.070616,98.28273 -1.39564,7.99304 2.992609,4.16986 -1.437276,1.97437 -4.786818,-3.09771 z"
     id="path21" /><ellipse
     style="fill:#f4884c;fill-opacity:0.62714797;stroke-width:2.20171;paint-order:stroke markers fill"
     id="path23"
     cx="78.070396"
     cy="105.68968"
     rx="8.0085888"
     ry="3.8169343" /><path
     style="fill:#db6b9d;fill-opacity:0.602287;stroke-width:2.83061;paint-order:stroke markers fill"
     d="m 58.949371,86.971975 0.412839,0.425287 4.437465,-1.914717 5.144446,-0.395557 -0.33752,-1.03324 -5.335394,0.03489 z"
     id="path12"
     sodipodi:nodetypes="ccccccc" /><path
     style="fill:#db6b9d;fill-opacity:0.602287;stroke-width:2.83061;paint-order:stroke markers fill"
     d="m 31.437501,83.651833 0.316806,1.187517 1.429327,-0.491119 3.651357,0.511686 -0.444894,-1.219274 -2.94616,-0.836886 z"
     id="path12-6"
     sodipodi:nodetypes="ccccccc" /><path
     style="fill:#5d5205;fill-opacity:1;stroke-width:2.83061;paint-order:stroke markers fill"
     d="m 56.565806,92.872087 c 1.803296,-7.235364 6.346645,-8.72424 11.272692,-8.135003 4.926047,0.589237 11.479996,6.348825 9.049537,12.908104 3.270193,-3.483883 2.793367,-7.631636 6.466521,-8.697219 -2.335289,-0.203968 -2.963259,-0.170964 -4.78734,0.179616 2.392862,-1.168248 2.55365,-1.525311 4.466337,-1.587442 -4.41324,-0.484407 -7.83525,-4.478971 -13.561229,-4.677047 -5.72598,-0.198076 -14.534925,2.115111 -12.906518,10.008991 z"
     id="path1"
     sodipodi:nodetypes="czcccczc" /><rect
     style="fill:#ffffff;fill-opacity:0.784237;stroke-width:2.83061;paint-order:stroke markers fill"
     id="rect12"
     width="2.7668855"
     height="3.1053884"
     x="66.794144"
     y="87.242744" /><rect
     style="fill:#ffffff;fill-opacity:0.784237;stroke-width:2.32033;paint-order:stroke markers fill"
     id="rect12-3"
     width="1.8592066"
     height="3.1053884"
     x="35.231541"
     y="85.61113" /><path
     style="fill:#5d5205;fill-opacity:1;stroke-width:2.83061;paint-order:stroke markers fill"
     d="m 39.632903,86.106154 c -3.084834,-2.013278 -4.705331,-2.84576 -7.979646,-1.780946 -3.274299,1.064814 -0.766812,11.030477 -0.857775,10.485889 -0.09105,-0.544587 -1.916693,-5.818528 -3.470932,-6.73531 0.782278,-0.403441 0.700555,-0.480479 1.848753,-0.96304 -0.544665,-0.432554 -0.995455,-0.693895 -2.35232,-1.139062 1.022617,-0.563579 3.207385,-3.567504 5.720947,-3.669895 2.513562,-0.10239 6.403983,0.682722 7.090973,3.802364 z"
     id="path3"
     sodipodi:nodetypes="czsccczc" /></svg>
