<?xml version="1.0" encoding="UTF-8"?>
<svg width="600" height="800" version="1.1" viewBox="0 0 159 212" xml:space="preserve" xmlns="http://www.w3.org/2000/svg" xmlns:cc="http://creativecommons.org/ns#" xmlns:dc="http://purl.org/dc/elements/1.1/" xmlns:rdf="http://www.w3.org/1999/02/22-rdf-syntax-ns#"><metadata><rdf:RDF><cc:Work rdf:about=""><dc:format>image/svg+xml</dc:format><dc:type rdf:resource="http://purl.org/dc/dcmitype/StillImage"/></cc:Work></rdf:RDF></metadata><g fill="none" stroke-linecap="round" stroke-linejoin="round"><circle r="0" stroke="#c53822" stroke-width="2.26" style="paint-order:stroke markers fill"/><g stroke="#924019"><circle r="0" stroke-width="1.29" style="paint-order:stroke markers fill"/><circle transform="scale(1,-1)" r="0" stroke-width="3.6" style="paint-order:stroke markers fill"/><circle transform="scale(1,-1)" r="0" stroke-width="3.6" style="paint-order:stroke markers fill"/></g><circle transform="scale(1,-1)" r="0" stroke="#4d4320" stroke-width="4.38" style="paint-order:stroke markers fill"/><circle transform="scale(1,-1)" r="0" stroke="#4d4320" stroke-width="3.52" style="paint-order:stroke markers fill"/></g><g stroke-width="2.8306"><path d="m101.97 23.748s2.4782-11.649 15.059-8.7819c12.581 2.8674 31.202 29.858 33.609 49.691 2.4066 19.832-20.185 40.601-20.71 56.182-0.52559 15.581 9.4884 32.299 9.4884 32.299s-32.778-13.562-39.407-29.129c-6.6293-15.567 6.759-52.078 6.759-52.078l12.59-27.643-14.852-11.591z" fill="#443c04" style="paint-order:stroke markers fill"/><path d="m86.737 130.51 25.401 11.318 3.6898 10.662-26.192 5.6104 3.8413-15.349h-38.353l-4.5005 14.887-14.766-8.9093 1.7296-6.8371 23.192-12.087z" fill="#f0ebc7" style="paint-order:stroke markers fill"/><path d="m57.531 126.59c1.1316 9.5479 0.63712 17.837-14.234 21.387 1.2275 8.887 9.443 16.646 21.356 18.321 11.913 1.6743 34.568-4.0547 40.037-18.351-20.075-3.0266-20.728-21.673-14.804-43.113-13.609 7.0401-25.412 14.178-32.355 21.757z" fill="#ecb98a" style="paint-order:stroke markers fill"/></g><path d="m58.303 128.91-1.1205 9.8677 25.55-15.701-0.49416-9.5154z" fill="#9a9d95" fill-opacity=".44684" stroke-width="2.8306" style="paint-order:stroke markers fill"/><g stroke-width="2.8306"><path d="m12.132 187.8-6.7223 24.199 23.059 0.16733 3.0322-14.788z" fill="#6f6f6f" style="paint-order:stroke markers fill"/><path d="m137.15 188.46-24.103 4.9586 8.3718 18.364 23.396 0.0407z" fill="#6f6f6f" style="paint-order:stroke markers fill"/><path d="m54.375 142.49c-1e-6 0-35.305 13.986-38.973 19.84-3.6681 5.8537-8.6767 27.935-8.6767 27.935s13.577 8.8204 20.506 7.4067c0.40127 3.8663 3.0662 8.6195 4.754 14.229l83.624 0.10414c-0.2038-2.1274-0.74055-11.795-1.1108-17.692l6.8249-0.23351 19.521-7.6461s-8.2486-26.844-13.201-32.569c-4.9529-5.7242-34.296-10.296-34.296-10.296l-29.023 15.744z" fill="#f0ebc7" style="paint-order:stroke markers fill"/></g><path d="m105.51 169.96 3.9864 23.681-3.1236 18.354h7.2601l1.4751-6.5872-3.3668-18.293-3.4455-16.183z" fill="#b1a381" fill-opacity=".70914" stroke-width="2.8306" style="paint-order:stroke markers fill"/><g><path d="m69.592 18.014c16.206-0.40199 30.721 1.7078 41.483 16.072 10.763 14.364 9.3467 48.43 2.5837 63.69-6.7629 15.26-26.6 21.691-26.6 21.691l-32.88 1.6079s-20.361-13.517-26.854-28.069c-6.4931-14.551-15.344-38.795-5.9434-53.508 9.4006-14.713 32.004-21.082 48.21-21.484z" fill="#443c04" stroke-width="2.8306" style="paint-order:stroke markers fill"/><path d="m28.701 93.411c-0.90599 4.6714-0.16341 18.981 2.2851 22.868 2.4485 3.8862 12.045 17.818 18.878 18.528 6.8332 0.71066 29.359-9.3983 33.326-13.375s23.082-26.88 23.082-26.88 2.7234-8.9209 5.7758-23.125c3.0525-14.204-13.244-49.936-46.777-50.858-33.533-0.92206-40.581 24.74-40.846 38.521-0.26444 13.781 1.4441 18.144 4.2754 34.322z" fill="#ecb98a" stroke-width="2.8306" style="paint-order:stroke markers fill"/><path d="m71.825 91.03c0 4.624-3.0325 8.3725-6.7733 8.3725s-6.7733-3.7485-6.7733-8.3725c0-4.624 3.0325-7.3272 6.7733-7.3272s6.7733 2.7032 6.7733 7.3272z" fill="#433106" stroke-width="2.9722" style="paint-order:stroke markers fill"/><ellipse transform="matrix(.98374 -.17962 .15533 .98786 0 0)" cx="20.227" cy="94.851" rx="4.1576" ry="7.1654" fill="#433106" stroke-width="2.9388" style="paint-order:stroke markers fill"/><path d="m107.82 84.292c-3.7506 6.6516-11.874 14.548-14.714 23.963 5.3646 5.6409 13.701-3.9408 16.308-8.919 2.6067-4.9781 10.508-15.109-1.5944-15.044z" fill="#ecc58a" stroke-width="2.8306" style="paint-order:stroke markers fill"/></g><g fill="#443c04" stroke-width="2.8306"><path d="m65.211 17.704c-17.952-2.51-35.006 10.499-42.939 22.959-7.9326 12.46-2.1581 39.876-2.1581 39.876l12.18-24.725 6.2079 24.008 1.5722-17.567 13.389 23.867 0.43336-29.08 14.023 18.839-0.22777-12.587 12.668 18.823 5.1761-6.9192 3.4273 23.117 3.5431-3.8384 0.24709 5.4734 13.746-11.099s11.871-9.4063 10.978-30.345-34.313-38.293-52.266-40.803z" style="paint-order:stroke markers fill"/><path d="m55.419 79.671c4.1407-1.8808 5.7828-4.4256 12.554-5.6075 4.5221 0.06713 8.7597 2.5525 13.138 3.8452l-13.64-0.4459z" fill-opacity=".70914" style="paint-order:stroke markers fill"/><path d="m26.217 78.872 3.833-1.7583 10.709 2.9574c-3.8915-3.1721-7.0149-5.1275-10.979-6.1099-2.3718 1.2428-2.4189 3.2594-3.5632 4.9108z" fill-opacity=".70914" style="paint-order:stroke markers fill"/></g><g stroke-width="2.8306"><path d="m42.274 116.79s2.5655 2.0941 4.9618 2.2932c2.3963 0.19907 8.6433-2.3656 8.6433-2.3656l1.9275 0.2929-3.7392 1.5153s-4.6125 2.1266-6.5325 2.0195c-1.92-0.10705-4.3085-1.8789-4.3085-1.8789z" fill="#f1400f" fill-opacity=".50734" style="paint-order:stroke markers fill"/><path d="m45.65 122.43s1.7068 1.2772 2.5241 0.62838c-0.22095 1.012 1.2798 2.4808 0.14707 2.8276-1.1735-1.4542-2.6712-3.456-2.6712-3.456z" fill="#f8eb90" fill-opacity=".44796" style="paint-order:stroke markers fill"/><path d="m45.071 98.283-1.3956 7.993 2.9926 4.1699-1.4373 1.9744-4.7868-3.0977z" fill="#443c04" fill-opacity=".45851" style="paint-order:stroke markers fill"/></g><ellipse cx="78.07" cy="105.69" rx="8.0086" ry="3.8169" fill="#f4884c" fill-opacity=".62715" stroke-width="2.2017" style="paint-order:stroke markers fill"/><g stroke-width="2.8306"><path d="m58.949 86.972 0.41284 0.42529 4.4375-1.9147 5.1444-0.39556-0.33752-1.0332-5.3354 0.03489z" fill="#db6b9d" fill-opacity=".60229" style="paint-order:stroke markers fill"/><path d="m31.438 83.652 0.31681 1.1875 1.4293-0.49112 3.6514 0.51169-0.44489-1.2193-2.9462-0.83689z" fill="#db6b9d" fill-opacity=".60229" style="paint-order:stroke markers fill"/><path d="m56.566 92.872c1.8033-7.2354 6.3466-8.7242 11.273-8.135s11.48 6.3488 9.0495 12.908c3.2702-3.4839 2.7934-7.6316 6.4665-8.6972-2.3353-0.20397-2.9633-0.17096-4.7873 0.17962 2.3929-1.1682 2.5536-1.5253 4.4663-1.5874-4.4132-0.48441-7.8352-4.479-13.561-4.677-5.726-0.19808-14.535 2.1151-12.907 10.009z" fill="#5d5205" style="paint-order:stroke markers fill"/><rect x="66.794" y="87.243" width="2.7669" height="3.1054" fill="#fff" fill-opacity=".78424" style="paint-order:stroke markers fill"/></g><rect x="35.232" y="85.611" width="1.8592" height="3.1054" fill="#fff" fill-opacity=".78424" stroke-width="2.3203" style="paint-order:stroke markers fill"/><path d="m39.633 86.106c-3.0848-2.0133-4.7053-2.8458-7.9796-1.7809-3.2743 1.0648-0.76681 11.03-0.85778 10.486-0.09105-0.54459-1.9167-5.8185-3.4709-6.7353 0.78228-0.40344 0.70056-0.48048 1.8488-0.96304-0.54466-0.43255-0.99546-0.6939-2.3523-1.1391 1.0226-0.56358 3.2074-3.5675 5.7209-3.6699 2.5136-0.10239 6.404 0.68272 7.091 3.8024z" fill="#5d5205" stroke-width="2.8306" style="paint-order:stroke markers fill"/></svg>
