<?xml version="1.0" encoding="UTF-8" standalone="no"?>
<svg
   width="600"
   height="800"
   version="1.1"
   viewBox="0 0 159 212"
   id="svg2818"
   sodipodi:docname="cheer.svg"
   inkscape:version="1.3.2 (1:1.3.2+202311252150+091e20ef0f)"
   xmlns:inkscape="http://www.inkscape.org/namespaces/inkscape"
   xmlns:sodipodi="http://sodipodi.sourceforge.net/DTD/sodipodi-0.dtd"
   xmlns="http://www.w3.org/2000/svg"
   xmlns:svg="http://www.w3.org/2000/svg"
   xmlns:rdf="http://www.w3.org/1999/02/22-rdf-syntax-ns#"
   xmlns:cc="http://creativecommons.org/ns#"
   xmlns:dc="http://purl.org/dc/elements/1.1/">
  <defs
     id="defs2822" />
  <sodipodi:namedview
     id="namedview2820"
     pagecolor="#ffffff"
     bordercolor="#999999"
     borderopacity="1"
     inkscape:pageshadow="0"
     inkscape:pageopacity="0"
     inkscape:pagecheckerboard="0"
     showgrid="false"
     inkscape:snap-global="false"
     inkscape:zoom="0.63551222"
     inkscape:cx="-80.250227"
     inkscape:cy="287.16993"
     inkscape:window-width="1920"
     inkscape:window-height="1016"
     inkscape:window-x="0"
     inkscape:window-y="0"
     inkscape:window-maximized="1"
     inkscape:current-layer="svg2818"
     inkscape:showpageshadow="2"
     inkscape:deskcolor="#d1d1d1" />
  <metadata
     id="metadata2728">
    <rdf:RDF>
      <cc:Work
         rdf:about="">
        <dc:format>image/svg+xml</dc:format>
        <dc:type
           rdf:resource="http://purl.org/dc/dcmitype/StillImage" />
      </cc:Work>
    </rdf:RDF>
  </metadata>
  <path
     d="m 46.612904,65.055428 c 0,0 6.62,24.6 5.96,29.399999 -0.657,4.8 -6.51,10.600003 -6.51,10.600003 l -33.7,-5.440003 15.3,-29.599999 z"
     fill="#71c837"
     id="path2774-3" />
  <path
     d="m 57,17.3 c -57.4,0.608 -33.2,71.1 -33.2,71.1 -7.01,26.9 -27.6,48.1 -19.3,76.3 8.34,28.2 33.157076,43.03392 33.157076,43.03392 L 40.8,200.54 114.88105,194.95719 C 131.8588,144.84054 103.9,122.84 103.9,122.84 L 88.7,53.64 101,36.84 c 0,0 2.36,-26.7 -44.1,-19.4 z"
     fill="#71c837"
     id="path2730"
     sodipodi:nodetypes="ccccccccccc" />
  <path
     d="m 159,36.305 -65.19,73.405 -0.69165,15.7145 65.985,-33.92 v -55.12 z"
     id="path2732"
     style="fill:#fcef40;fill-opacity:0.41743165;stroke-width:0.265" />
  <path
     d="m 98.58,135.945 3.445,13.144 56.975,53 v -36.305 l -60.42,-29.68 z"
     id="path2736"
     style="fill:#fcef40;fill-opacity:0.41743165;stroke-width:0.265" />
  <path
     d="M 68.635,135.15 0,166.685 v 41.075 l 70.755,-59.095 -2.11735,-13.4355 z"
     id="path2738"
     style="fill:#fcef40;fill-opacity:0.41743165;stroke-width:0.265" />
  <path
     transform="scale(.265)"
     d="m407 712-271 29.8s0.248 24.5 1.16 58.6h125c-1.68-22.3-4.01-37.3-4.01-37.3l37.8-4.95s6.71 17.8 17 42.3h136c-21.4-48.1-41.2-88.4-41.2-88.4z"
     fill="#f2c7b0"
     id="path2742" />
  <path
     d="m 0,53.53 v 51.41 L 68.635,123.596 67.893,111.83 0.053,53.53 Z"
     id="path2734"
     style="fill:#fcef40;fill-opacity:0.41743165;stroke-width:0.265" />
  <path
     transform="scale(.265)"
     d="m312 331-72.4 21.1s9.94 25.9 4.26 37.6-62.2 30.9-62.2 30.9c-55.1 25.8-65.9 103-65.9 103s-40.4 63.3-57.9 113c-13.1 36.8-24.7 123-29.8 164h45.1c16.8-42.3 43.7-113 48.7-141 20.6-27.6 65.4-123 77.8-130l209-33.4c12.4 0.963 19.2 21.1 24.4 30.9 7.25 13.6 59.8 92.4 76.7 124 5.17 9.13 44.8 38.7 58.8 31.3 13.9-7.38 16.2-63 16.2-63l-116-203c-22.6-48.6-53.6-38.2-84.5-38.9l-42.4-1.84z"
     fill="#f2c7b0"
     id="path2744" />
  <g
     transform="translate(1.0277799,4.0843489)"
     stroke-width="1.33"
     id="g2750">
    <path
       d="m 144,51.1 c -7.46,8.42 -12,-3.96 -12,-3.96 0,0 -1.04,16.4 -8.53,9.37 -7.5,-7.03 0.0413,-12.7 0.0413,-12.7 0,0 -10.3,4.89 -11.5,-5.22 -1.2,-10.11 12.1,-3.88 12.1,-3.88 0,0 -8.4,-8.49 1.39,-12.6 9.79,-4.11 7.42,10.3 7.42,10.3 0,0 7.36,-14 12.4,-2.57 5.05,11.4 -7.48,10.2 -7.48,10.2 0,0 13.7,2.59 6.28,11 z"
       fill="#f8f852"
       id="path2746" />
    <ellipse
       cx="131"
       cy="40"
       rx="5.5999999"
       ry="5.5900002"
       fill="#ffffff"
       id="ellipse2748" />
  </g>
  <path
     transform="scale(.265)"
     d="m346 361 14.3 54.1-17.3 37.1-87.7-6.77-30.4-58.6-35.9 24.5-38.2 11.6 51 104 17.2 99.2c-52 21.4-85.2 105-85.2 105l-1.85 69.2h55.8l39.4-20.3 31.8 20.3h113l22-27.3 37.9 27.3h25.7l-25.1-55.3-44.3-102 36.8-83.8-6.68-64.5-8.82-130-32.2 8.82z"
     fill="#a8dc71"
     id="path2752" />
  <path
     d="m67.8 88-3.97 8.52 4.97 9s1.7 6.59 13.8 2.72c0.761-0.243 8.98-6.25 8.98-6.25l-2.63-8.14z"
     fill="#b7a68d"
     id="path2754" />
  <path
     d="m103 105 8.71 22.4 5 13.8s18.7 31.4 19.4 31c0.736-0.309-10.2-27.5-10.2-27.5l-6.36-19.7z"
     fill="#b7a68d"
     fill-opacity=".553"
     id="path2756" />
  <path
     d="m 88.8,36.5 c 6.26,8.09 6.78,25.6 6.78,25.6 0.158494,4.178291 3.468249,13.03921 3.426434,19.54776 C 98.842434,83.86776 91.6,101.3 88.17,102.9 c -3.43,1.63 -24.467657,-2.36952 -29.9,-7.16 -6.011146,-5.08388 -21.4,-18.5 -22.7,-32.3 -1.3,-13.8 6.04,-34.9 19.6,-39.3 13.6,-4.42 27.4,4.27 33.7,12.4 z"
     fill="#f2c7b0"
     id="path2758"
     sodipodi:nodetypes="cccccsccc" />
  <path
     d="m69.3 73.8c0.925 3.33-0.672 6.69-3.57 7.49-2.89 0.803-5.99-1.25-6.92-4.58-0.925-3.33 1.28-6.06 4.19-6.79 3.48-0.876 5.37 0.548 6.29 3.88z"
     fill="#80b617"
     stroke-width="1.31"
     id="path2760" />
  <path
     d="m71.6 73.1c-1.49-1.9-4.81-4.65-9.81-1.85 0 0-5.75 3.6-4.73 7.68 0 0-1.96-2.02-4.73-2.04 2.24-0.414 5.37-6.04 8.76-6.85 2.03-0.963 8-1.82 10.5 3.07z"
     fill="#8e6224"
     id="path2762" />
  <path
     d="m92.4 64.7c0.298 3.14-1.25 5.85-3.45 6.06-2.2 0.209-4.23-2.16-4.53-5.3-0.298-3.14 1.42-4.8 3.39-5.82 2.09-1.08 4.3 1.92 4.59 5.06z"
     fill="#80b617"
     stroke-width="1.64"
     id="path2764" />
  <path
     d="m 83.7,68.5 c 0,0 1.46,-6.27 3.69,-8.13 3.12,-1.75 5.16,-0.0163 6.37,1.3 0.0364,-1.28 1.59,-3.19 1.59,-3.19 0,0 -0.865,0.729 -1.9,0.938 -1.36,-2.12 -4.96,-1.27 -4.96,-1.27 0,0 -5.39,2.97 -4.79,10.4 z"
     fill="#8e6224"
     id="path2766" />
  <path
     d="m 83.185514,88.161987 c 0.685475,-0.288296 4.262593,-1.699437 6.608525,-3.639011 0.818,2.83 -2.79,9.93 -5.2,10.8 0,0 -11.659604,-0.08873 -13.859604,-4.999731 2.343943,0.607916 11.765604,-1.872962 12.451079,-2.161258 z"
     fill="#dd765e"
     id="path2768"
     sodipodi:nodetypes="zcccz"
     style="fill:#e96f52;fill-opacity:1" />
  <path
     d="m 79.309124,82.227196 4.167608,-0.218809 2.3932,-1.448891 c 0,0 -1.214533,3.441888 -2.858787,3.670418 -1.644255,0.22853 -3.702021,-2.002718 -3.702021,-2.002718 z"
     fill="#b7a68d"
     id="path2770"
     sodipodi:nodetypes="ccczc"
     style="stroke-width:1.57759" />
  <path
     d="m 110,115 c -5.22,-4.31 -11.3,-17 -11.3,-17 -1.06,-5.04 3.31,-3.42 3.31,-3.42 -3.95,-7.3 2.62,-6.16 3.24,-5.43 -1.31,-5.47 3.44,-4.07 4.48,-3.77 0,0 4.6,1.99 4.92,1.04 0,0 -0.665,-1.06 -0.593,-2.21 -1.65,-0.743 -1.45,-1.11 -2.21,-1.44 -0.334,0.0984 0.154,1.75 -1.22,2.8 -0.824,0.629 -1.9,0.844 -2.3,0.933 -0.432,-1.02 -0.657,-5.34 -0.636,-5.53 0.0823,-0.749 2.15,-2.31 3.67,-2.18 2.94,0.775 6.75,3.6 6.75,3.6 l 4,8.17 c 0,0 -1.30144,6.69699 3.45,19.4 4.75144,12.70301 23.55135,28.15784 31.7,52.9 1.73,13.4 -4.64,17.4 -6.79,18.6 -2.15,1.2 -11.9,-5.82 -14,-8.72 -2.16,-2.91 -19.4,-46.6 -21.6,-50.3 0,0 -2.21,-2.03 -3.04,-3.29 -0.831,-1.26 -1.87,-4.19 -1.87,-4.19 z"
     fill="#f2c7b0"
     id="path2772"
     sodipodi:nodetypes="ccccccccccccccccsccccc" />
  <path
     d="M 44.900932,56.305153 C 44.900932,56.305153 56.42,90.5 55.76,95.3 46.202782,92.698844 46.523935,91.688437 37.229829,86.308162 L 29.958527,60.840148 Z"
     fill="#71c837"
     id="path2774"
     sodipodi:nodetypes="ccccc" />
  <path
     d="m58.2 56.6c-3.75 0.379-7.58 2.05-10.1 5.61l1.47 1.07c2.12-3.05 5.4-4.49 8.76-4.83 3.36-0.34 6.78 0.488 8.85 1.85l0.966-1.55c-2.53-1.65-6.25-2.5-10-2.13z"
     color="#000000"
     fill="#845816"
     stroke-width="1.53"
     style="-inkscape-stroke:none"
     id="path2778" />
  <path
     d="m87.4 46.9c-1.86 0.379-3.76 2.05-4.99 5.61l0.727 1.07c1.05-3.05 2.68-4.49 4.34-4.83 1.67-0.34 3.36 0.488 4.39 1.85l0.479-1.55c-1.25-1.65-3.1-2.5-4.96-2.13z"
     color="#000000"
     fill="#845816"
     stroke-width="1.08"
     style="-inkscape-stroke:none"
     id="path2780" />
  <g
     id="g2790">
    <path
       d="M 85.9,32.1 C 83.37,38.42 59.400261,60.074141 46.514289,60.301808 41.847497,61.476234 34.978301,61.40854 31.678301,62.20854 39.688301,33.90854 28.32,30.8 28.32,30.8 c 25.6,-14.4 43.9,-12.9 57.6,1.3 z"
       fill="#71c837"
       id="path2782"
       sodipodi:nodetypes="cccccc" />
    <path
       d="m 74,36.2 c 0,0 16.4,13.7 20.4,20.4 4.04,6.66 5.38,17.1 5.38,17.1 8.03,-15.4 8.24,-26.2 0.287,-37 1.78,0.602 8.66691,-2.111975 10.6277,-10.121291 C 103.63635,31.096029 99.757,20.28 87.877,22.38 c -2.32,-2.57 -17.1,-9.97 -19,-5.09 z"
       fill="#71c837"
       id="path2784"
       sodipodi:nodetypes="cccccccc" />
    <path
       d="m45.9 78c-0.145-4.88-31.9-8.55-31.9-8.55 0.354 10.3 23.4 15 23.4 15 3.03 5.46 7.11 3.49 10.6 3.36z"
       fill="#f2c7b0"
       id="path2786" />
    <path
       d="m53.4 149 2.38 8.38 0.443 6.98 9.68 9.67 21.7 10.4 10.1-4.41 7.97-9.03 2.16-10.8-12.2 6.31-24.6-2.98z"
       fill="#598e24"
       id="path2788" />
  </g>
  <g
     fill="none"
     stroke-linecap="round"
     stroke-linejoin="round"
     id="g2806">
    <circle
       r="0"
       stroke="#c53822"
       stroke-width="2.26"
       style="paint-order:stroke markers fill"
       id="circle2792" />
    <g
       stroke="#924019"
       id="g2800">
      <circle
         r="0"
         stroke-width="1.29"
         style="paint-order:stroke markers fill"
         id="circle2794" />
      <circle
         transform="scale(1,-1)"
         r="0"
         stroke-width="3.6"
         style="paint-order:stroke markers fill"
         id="circle2796" />
      <circle
         transform="scale(1,-1)"
         r="0"
         stroke-width="3.6"
         style="paint-order:stroke markers fill"
         id="circle2798" />
    </g>
    <circle
       transform="scale(1,-1)"
       r="0"
       stroke="#4d4320"
       stroke-width="4.38"
       style="paint-order:stroke markers fill"
       id="circle2802" />
    <circle
       transform="scale(1,-1)"
       r="0"
       stroke="#4d4320"
       stroke-width="3.52"
       style="paint-order:stroke markers fill"
       id="circle2804" />
  </g>
  <path
     d="m 76.525359,93.839148 c 3.3,-3.67 9.97549,-5.400988 12.16549,-3.840988 -0.934809,2.348348 -3.066816,5.201859 -3.976816,5.291859 -2.02,0.297 -6.453684,-0.602647 -8.293684,-1.113647 z"
     fill="#eca08c"
     id="path2808"
     sodipodi:nodetypes="ccccc" />
  <ellipse
     transform="matrix(.983 -.181 .206 .979 0 0)"
     cx="47.9"
     cy="86.2"
     rx="2.14"
     ry="2.66"
     fill="#46630d"
     stroke-width="1.35"
     id="ellipse2810" />
  <ellipse
     transform="matrix(1 .0149 .0103 1 0 0)"
     cx="88.1"
     cy="64"
     rx="1.71"
     ry="2.37"
     fill="#46630d"
     stroke-width="1.14"
     id="ellipse2812" />
  <ellipse
     cx="65.056694"
     cy="72.193344"
     rx="1.22"
     ry="1.34"
     fill="#ffffff"
     stroke-width="0.303"
     id="ellipse2814" />
  <ellipse
     cx="90"
     cy="62.7"
     rx="1.22"
     ry="1.34"
     fill="#fff"
     stroke-width=".303"
     id="ellipse2816" />
  <ellipse
     cx="67.365555"
     cy="74.290733"
     rx="1.22"
     ry="1.34"
     fill="#ffffff"
     stroke-width="0.303"
     id="ellipse2814-6" />
  <ellipse
     cx="90.780754"
     cy="64.582069"
     rx="1.22"
     ry="1.34"
     fill="#ffffff"
     stroke-width="0.303"
     id="ellipse2816-7" />
</svg>
